<svg width="24" height="14" viewBox="0 0 24 14" fill="none" xmlns="http://www.w3.org/2000/svg">
<path d="M0.875 6.79785C1.32161 6.58366 2.26497 6.20996 3.70508 5.67676C5.14974 5.139 5.97233 4.83138 6.17285 4.75391C6.37793 4.67643 6.52148 4.6377 6.60352 4.6377C6.68555 4.6377 6.72884 4.66732 6.7334 4.72656C6.81543 5.7793 6.9043 6.51758 7 6.94141C7 7.04167 6.97266 7.09408 6.91797 7.09863L3.91016 8.20605C4.01497 8.26074 4.52083 8.51823 5.42773 8.97852C6.33919 9.43424 6.84277 9.68945 6.93848 9.74414C7.03418 9.79427 7.08203 9.83073 7.08203 9.85352C7.08203 9.8763 7.07747 9.90592 7.06836 9.94238C6.83594 10.3525 6.55111 11.0612 6.21387 12.0684C6.18197 12.1549 6.125 12.1982 6.04297 12.1982C5.96549 12.1982 5.87891 12.1709 5.7832 12.1162L0.998047 9.32715C0.952474 9.28158 0.929688 9.21322 0.929688 9.12207C0.929688 8.53418 0.906901 8.02604 0.861328 7.59766C0.815755 7.16471 0.792969 6.94596 0.792969 6.94141V6.92773C0.802083 6.84115 0.829427 6.79785 0.875 6.79785ZM23.5088 6.92773C23.5088 6.92773 23.5088 6.93913 23.5088 6.96191C23.4176 7.81413 23.3698 8.53418 23.3652 9.12207C23.3652 9.22689 23.3356 9.2998 23.2764 9.34082L18.5117 12.1162C18.3841 12.1709 18.2884 12.1982 18.2246 12.1982C18.1608 12.1982 18.1107 12.1504 18.0742 12.0547C18.0378 11.959 17.9352 11.6764 17.7666 11.207C17.598 10.7376 17.418 10.3161 17.2266 9.94238C17.2174 9.90592 17.2129 9.87402 17.2129 9.84668C17.2129 9.81478 17.2607 9.77604 17.3564 9.73047C18.9561 8.92839 19.9655 8.42025 20.3848 8.20605L17.377 7.09863C17.3223 7.09408 17.2949 7.04167 17.2949 6.94141C17.3906 6.51758 17.4795 5.7793 17.5615 4.72656C17.5661 4.66732 17.6094 4.6377 17.6914 4.6377C17.7734 4.6377 17.9147 4.67643 18.1152 4.75391C18.3203 4.83138 19.1429 5.139 20.583 5.67676C22.0277 6.20996 22.9733 6.58366 23.4199 6.79785C23.4701 6.79785 23.4997 6.84115 23.5088 6.92773Z" fill="white"/>
<path d="M15.5518 1.94434L10.0283 13.2441L7.63574 12.7109C10.4066 7.01432 12.4391 2.92643 13.7334 0.447266L16.0234 0.932617L15.7773 1.41113L15.5518 1.94434Z" fill="#FF7134"/>
</svg>
